<svg xmlns="http://www.w3.org/2000/svg" viewBox="0 0 220 64" fill="none" aria-label="Figma">
  <!-- Figma "F" mark, monochrome white -->
  <g fill="#FFFFFF">
    <path d="M21.33 64a10.67 10.67 0 0 0 10.67-10.67V42.67H21.33a10.67 10.67 0 0 0 0 21.33z"/>
    <path d="M10.67 32a10.67 10.67 0 0 1 10.67-10.67h10.66v21.33H21.34A10.67 10.67 0 0 1 10.67 32z"/>
    <path d="M10.67 10.67A10.67 10.67 0 0 1 21.34 0H32v21.33H21.34A10.67 10.67 0 0 1 10.67 10.67z"/>
    <path d="M32 0h10.67a10.67 10.67 0 0 1 0 21.33H32V0z"/>
    <path d="M53.33 32a10.67 10.67 0 1 1-21.33 0 10.67 10.67 0 0 1 21.33 0z"/>
  </g>
  <!-- Wordmark "Figma" — typeset in Inter, white -->
  <text x="74" y="42"
        font-family="Inter, -apple-system, system-ui, sans-serif"
        font-size="32"
        font-weight="700"
        letter-spacing="-1"
        fill="#FFFFFF">Figma</text>
</svg>
